HIERARCHY
ROOT Hips
{
  OFFSET 5.84602e-005 68.8428 3.50346
  CHANNELS 6 Xposition Yposition Zposition Zrotation Xrotation Yrotation
  JOINT Spine
  {
    OFFSET 0 8.597 -4.6522
    CHANNELS 3 Zrotation Xrotation Yrotation
    JOINT Spine1
    {
      OFFSET 0 7.8454 0.4098
      CHANNELS 3 Zrotation Xrotation Yrotation
      JOINT Spine2
      {
        OFFSET 0 9.7078 -2.1609
        CHANNELS 3 Zrotation Xrotation Yrotation
        JOINT Neck
        {
          OFFSET 0 21.8761 -0.4549
          CHANNELS 3 Zrotation Xrotation Yrotation
          JOINT Head
          {
            OFFSET 0 12.3537 3.3602
            CHANNELS 3 Zrotation Xrotation Yrotation
            End Site
            {
              OFFSET 0.0001 18.9506 0.5657
            }
          }
        }
        JOINT LeftShoulder
        {
          OFFSET 2.2086 21.1115 7.2329
          CHANNELS 3 Zrotation Xrotation Yrotation
          JOINT LeftArm
          {
            OFFSET 13.1193 3.0282 -4.8998
            CHANNELS 3 Zrotation Xrotation Yrotation
            JOINT LeftForeArm
            {
              OFFSET 27.4081 -0.0973053 -0.2375
              CHANNELS 3 Zrotation Xrotation Yrotation
              JOINT LeftHand
              {
                OFFSET 22.8641 0.0662994 -0.1369
                CHANNELS 3 Zrotation Xrotation Yrotation
                JOINT LeftHandIndex1
                {
                  OFFSET 8.8614 0.775009 2.4612
                  CHANNELS 3 Zrotation Xrotation Yrotation
                  JOINT LeftHandIndex2
                  {
                    OFFSET 3.3146 -0.808304 0.5841
                    CHANNELS 3 Zrotation Xrotation Yrotation
                    JOINT LeftHandIndex3
                    {
                      OFFSET 2.2628 -0.552002 0.3989
                      CHANNELS 3 Zrotation Xrotation Yrotation
                      End Site
                      {
                        OFFSET 1.6102 -0.4807 0.2612
                      }
                    }
                  }
                }
                JOINT LeftHandMiddle1
                {
                  OFFSET 8.9937 0.895004 0.2143
                  CHANNELS 3 Zrotation Xrotation Yrotation
                  JOINT LeftHandMiddle2
                  {
                    OFFSET 4.0984 0.0113983 -0.0242
                    CHANNELS 3 Zrotation Xrotation Yrotation
                    JOINT LeftHandMiddle3
                    {
                      OFFSET 2.2716 0.00689697 -0.0138001
                      CHANNELS 3 Zrotation Xrotation Yrotation
                      End Site
                      {
                        OFFSET 2.0404 -0.1441 0.0027
                      }
                    }
                  }
                }
                JOINT LeftHandRing1
                {
                  OFFSET 8.5234 0.597198 -2.0164
                  CHANNELS 3 Zrotation Xrotation Yrotation
                  JOINT LeftHandRing2
                  {
                    OFFSET 3.7188 -0.188293 -0.2328
                    CHANNELS 3 Zrotation Xrotation Yrotation
                    JOINT LeftHandRing3
                    {
                      OFFSET 2.1191 -0.106598 -0.1332
                      CHANNELS 3 Zrotation Xrotation Yrotation
                      End Site
                      {
                        OFFSET 1.8737 -0.2304 -0.0886
                      }
                    }
                  }
                }
                JOINT LeftHandPinky1
                {
                  OFFSET 7.9094 -0.601089 -3.4825
                  CHANNELS 3 Zrotation Xrotation Yrotation
                  JOINT LeftHandPinky2
                  {
                    OFFSET 2.2874 -0.477005 -0.6314
                    CHANNELS 3 Zrotation Xrotation Yrotation
                    JOINT LeftHandPinky3
                    {
                      OFFSET 1.6774 -0.349396 -0.4633
                      CHANNELS 3 Zrotation Xrotation Yrotation
                      End Site
                      {
                        OFFSET 1.4888 -0.4091 -0.3416
                      }
                    }
                  }
                }
                JOINT LeftHandThumb1
                {
                  OFFSET 1.833 -1.3875 1.3896
                  CHANNELS 3 Zrotation Xrotation Yrotation
                  JOINT LeftHandThumb2
                  {
                    OFFSET 3.4129 -1.121 2.5732
                    CHANNELS 3 Zrotation Xrotation Yrotation
                    JOINT LeftHandThumb3
                    {
                      OFFSET 2.2474 -0.804199 1.6192
                      CHANNELS 3 Zrotation Xrotation Yrotation
                      End Site
                      {
                        OFFSET 1.6527 -0.5689 1.1317
                      }
                    }
                  }
                }
              }
            }
          }
        }
        JOINT RightShoulder
        {
          OFFSET -2.2086 21.1115 7.2329
          CHANNELS 3 Zrotation Xrotation Yrotation
          JOINT RightArm
          {
            OFFSET -13.1216 3.0287 -4.9007
            CHANNELS 3 Zrotation Xrotation Yrotation
            JOINT RightForeArm
            {
              OFFSET -27.4081 -0.0973053 -0.2375
              CHANNELS 3 Zrotation Xrotation Yrotation
              JOINT RightHand
              {
                OFFSET -22.8641 0.0664063 -0.1369
                CHANNELS 3 Zrotation Xrotation Yrotation
                JOINT RightHandIndex1
                {
                  OFFSET -8.8614 0.774994 2.4612
                  CHANNELS 3 Zrotation Xrotation Yrotation
                  JOINT RightHandIndex2
                  {
                    OFFSET -3.3146 -0.808304 0.5841
                    CHANNELS 3 Zrotation Xrotation Yrotation
                    JOINT RightHandIndex3
                    {
                      OFFSET -2.2628 -0.552002 0.3989
                      CHANNELS 3 Zrotation Xrotation Yrotation
                      End Site
                      {
                        OFFSET -1.6102 -0.4807 0.2612
                      }
                    }
                  }
                }
                JOINT RightHandMiddle1
                {
                  OFFSET -8.9937 0.894989 0.2143
                  CHANNELS 3 Zrotation Xrotation Yrotation
                  JOINT RightHandMiddle2
                  {
                    OFFSET -4.0984 0.0113983 -0.0242
                    CHANNELS 3 Zrotation Xrotation Yrotation
                    JOINT RightHandMiddle3
                    {
                      OFFSET -2.2716 0.00691223 -0.0138001
                      CHANNELS 3 Zrotation Xrotation Yrotation
                      End Site
                      {
                        OFFSET -2.0404 -0.1441 0.0027
                      }
                    }
                  }
                }
                JOINT RightHandRing1
                {
                  OFFSET -8.5234 0.597198 -2.0164
                  CHANNELS 3 Zrotation Xrotation Yrotation
                  JOINT RightHandRing2
                  {
                    OFFSET -3.7188 -0.188309 -0.2328
                    CHANNELS 3 Zrotation Xrotation Yrotation
                    JOINT RightHandRing3
                    {
                      OFFSET -2.1191 -0.106598 -0.1332
                      CHANNELS 3 Zrotation Xrotation Yrotation
                      End Site
                      {
                        OFFSET -1.8737 -0.2304 -0.0886
                      }
                    }
                  }
                }
                JOINT RightHandPinky1
                {
                  OFFSET -7.9094 -0.601105 -3.4825
                  CHANNELS 3 Zrotation Xrotation Yrotation
                  JOINT RightHandPinky2
                  {
                    OFFSET -2.2874 -0.477005 -0.6314
                    CHANNELS 3 Zrotation Xrotation Yrotation
                    JOINT RightHandPinky3
                    {
                      OFFSET -1.6774 -0.349396 -0.4633
                      CHANNELS 3 Zrotation Xrotation Yrotation
                      End Site
                      {
                        OFFSET -1.4888 -0.4091 -0.3416
                      }
                    }
                  }
                }
                JOINT RightHandThumb1
                {
                  OFFSET -1.833 -1.38751 1.3896
                  CHANNELS 3 Zrotation Xrotation Yrotation
                  JOINT RightHandThumb2
                  {
                    OFFSET -3.41299 -1.12099 2.5732
                    CHANNELS 3 Zrotation Xrotation Yrotation
                    JOINT RightHandThumb3
                    {
                      OFFSET -2.24741 -0.804108 1.6192
                      CHANNELS 3 Zrotation Xrotation Yrotation
                      End Site
                      {
                        OFFSET -1.6527 -0.5689 1.1317
                      }
                    }
                  }
                }
              }
            }
          }
        }
      }
    }
  }
  JOINT RightUpLeg
  {
    OFFSET -9.1966 3.8861 -0.7581
    CHANNELS 3 Zrotation Xrotation Yrotation
    JOINT RightLeg
    {
      OFFSET -0.7359 -41.0265 0
      CHANNELS 3 Zrotation Xrotation Yrotation
      JOINT RightFoot
      {
        OFFSET 0 -40.2855 0
        CHANNELS 3 Zrotation Xrotation Yrotation
        JOINT RightToeBase
        {
          OFFSET 0 -5.6122 11.7359
          CHANNELS 3 Zrotation Xrotation Yrotation
          End Site
          {
            OFFSET 0 0 7.8731
          }
        }
      }
    }
  }
  JOINT LeftUpLeg
  {
    OFFSET 9.1965 3.8864 -0.7581
    CHANNELS 3 Zrotation Xrotation Yrotation
    JOINT LeftLeg
    {
      OFFSET 0.7359 -41.0268 0
      CHANNELS 3 Zrotation Xrotation Yrotation
      JOINT LeftFoot
      {
        OFFSET 0 -40.2855 0
        CHANNELS 3 Zrotation Xrotation Yrotation
        JOINT LeftToeBase
        {
          OFFSET 0 -5.6122 11.7359
          CHANNELS 3 Zrotation Xrotation Yrotation
          End Site
          {
            OFFSET 0 0 7.8731
          }
        }
      }
    }
  }
}
MOTION
Frames:	4
Frame Time:	0.0333333
5.84602e-005 68.8428 3.50346 0 0 -0 0 0 -0 0 0 -0 0 0 -0 0 0 -0 0 0 -0 0 0 -0 0 0 -0 0 0 -0 0 0 -0 0 0 -0 0 0 -0 0 0 -0 0 0 -0 -0.0146107 -8.87603e-005 -2.63497e-007 2.99804e-018 -2.42657e-020 -1.42182e-022 0 0 -0 -0.0187562 -0.001176 5.858e-005 5.06224e-018 3.88251e-019 1.21329e-020 0 0 -0 -0.012269 -0.00324817 0.000675346 -1.74678e-018 3.88251e-019 -0 0 0 -0 0 0 -0 0 0 -0 0 0 -0 0 0 -0 0 0 -0 0 0 -0 0 0 -0 0 0 -0 0 0 -0 0 0 -0 0.0149955 -9.10982e-005 2.64101e-007 -9.69331e-018 1.21329e-020 -4.7394e-023 0 0 -0 0.0189956 -0.00119102 -5.96516e-005 -5.41541e-019 0 2.42657e-020 0 0 -0 0.0122698 -0.00324857 -0.000673756 -2.00796e-019 0 -1.94126e-019 0 0 -0 0 0 -0 0 0 -0 3.39842 1.33031 -0.0637918 -5.65207e-008 0.834868 -0.000436188 -3.39935 -2.16518 -0.0642563 -8.89002e-024 -1.18485e-023 -1.48106e-024 -3.39844 1.35642 0.0640283 -3.18788e-007 0.782166 -0.000588827 3.39931 -2.13858 0.0634662 1.1399e-023 0 -0 
0.0293066 31.3041 -20.9296 -17.1087 -15.5114 130.985 0.0389438 3.57742 0.0752179 0.0734184 7.15483 0.148434 0.0734209 7.15485 0.14843 1.7891e-005 0.467858 -4.04291e-005 0.224821 0.0897225 0.00115321 -8.16712 0.46866 -20.4207 -39.101 -1.76521 -16.2772 1.34139 -1.67449 -33.4344 -5.13283 0.00155313 0.029576 -9.54166e-015 5.96354e-016 -5.71506e-016 -9.54166e-015 -5.96354e-016 1.06847e-015 -3.18055e-015 3.97569e-016 -5.2181e-016 -9.54166e-015 5.96354e-016 -5.71506e-016 -0.0146338 -9.08866e-005 2.86878e-006 -3.18055e-015 -1.98785e-016 -5.2181e-016 -9.54166e-015 5.96354e-016 -5.71506e-016 -0.0188348 -0.00118611 6.1344e-005 -9.54166e-015 1.19271e-015 1.54058e-015 -9.54166e-015 5.96354e-016 -5.71506e-016 -0.0121307 -0.00321308 0.00066775 5.86222e-033 -1.98785e-016 1.68967e-015 -9.54166e-015 5.96354e-016 -5.71506e-016 -9.54166e-015 -5.96354e-016 1.06847e-015 -3.18055e-015 3.97569e-016 -5.2181e-016 8.17012 0.469143 20.4285 39.1025 -1.76474 16.2767 -1.34359 -1.67512 33.4349 5.12173 0.00693096 -0.0405278 5.5699e-006 -7.1649e-007 2.06366e-007 -1.67346e-006 5.3884e-007 -7.76984e-007 5.5699e-006 -7.1649e-007 2.06366e-007 5.5699e-006 -7.1649e-007 2.06366e-007 0.0149671 -8.89015e-005 -1.69989e-006 5.56938e-006 -7.1646e-007 2.06455e-007 5.5699e-006 -7.1649e-007 2.06366e-007 0.0190114 -0.00119184 -6.02876e-005 7.80715e-006 -1.25842e-006 5.3001e-007 5.5699e-006 -7.1649e-007 2.06366e-007 0.0122876 -0.0032535 -0.000676158 7.80652e-006 -1.25861e-006 5.29736e-007 5.5699e-006 -7.1649e-007 2.06366e-007 -1.67346e-006 5.3884e-007 -7.76984e-007 5.5699e-006 -7.1649e-007 2.06366e-007 -41.3866 -49.8764 -60.1202 -118.674 63.4616 141.615 21.6777 36.1333 -18.2438 -1.66248e-006 -1.27211e-006 -2.27939e-006 41.3811 -49.8776 60.1136 118.676 63.4617 -141.622 -21.6799 36.1334 18.242 2.34032e-006 -1.65259e-007 2.74317e-007 
-0.588419 14.4083 -29.4951 8.64422 -32.3842 -164.154 0.0491042 4.98464 0.111704 0.0889145 9.96936 0.22038 0.0889167 9.96936 0.220379 -0.000110967 0.934217 2.45249e-005 0.450517 0.179618 -0.00544356 -12.1089 1.36901 -29.6969 -56.7399 -2.58402 -23.5589 1.4378 -1.98888 -48.1141 -7.70298 -0.00561462 -0.103453 -1.06712e-007 2.4617e-007 3.31474e-007 -3.20136e-007 7.38509e-007 9.94423e-007 -1.06712e-007 2.4617e-007 3.31474e-007 -1.06712e-007 2.4617e-007 3.31474e-007 -0.014598 -8.95118e-005 -1.16268e-007 -1.06714e-007 2.46127e-007 3.31506e-007 -1.06712e-007 2.4617e-007 3.31474e-007 -0.0187758 -0.00117595 5.43232e-005 -1.06711e-007 2.46115e-007 3.31516e-007 -1.06712e-007 2.4617e-007 3.31474e-007 -0.0122852 -0.00325091 0.000679012 -1.06703e-007 2.46134e-007 3.31504e-007 -1.06712e-007 2.4617e-007 3.31474e-007 -3.20136e-007 7.38509e-007 9.94423e-007 -1.06712e-007 2.4617e-007 3.31474e-007 12.0872 1.36389 29.6562 56.7208 -2.59407 23.5487 -1.44245 -1.99175 48.0982 7.72902 -0.0245462 0.141777 1.98923e-006 -3.82075e-007 2.60606e-006 6.44578e-007 8.44168e-007 -1.3169e-006 1.98923e-006 -3.82075e-007 2.60606e-006 1.98923e-006 -3.82075e-007 2.60606e-006 0.0149526 -8.53163e-005 -2.41158e-006 1.98948e-006 -3.81737e-007 2.60611e-006 1.98923e-006 -3.82075e-007 2.60606e-006 0.0190144 -0.0011911 -6.0187e-005 1.98957e-006 -3.81662e-007 2.6061e-006 1.98923e-006 -3.82075e-007 2.60606e-006 0.0122788 -0.0032512 -0.000678867 1.98951e-006 -3.81839e-007 2.60603e-006 1.98923e-006 -3.82075e-007 2.60606e-006 6.44578e-007 8.44168e-007 -1.3169e-006 1.98923e-006 -3.82075e-007 2.60606e-006 -85.5381 -43.4851 -93.9651 -136.673 21.0356 155.528 46.5135 50.6475 -34.2393 -4.98552e-006 -2.78108e-007 1.37319e-006 85.5353 -43.4904 93.9623 136.67 21.0343 -155.533 -46.5159 50.6484 34.2368 1.37422e-007 1.24449e-007 3.72778e-006 
-0.614876 18.118 -27.7984 -0.000865537 -31.3804 179.998 0.0438408 4.22242 0.1069 0.0800846 8.44489 0.211416 0.0800846 8.44488 0.211416 1.61927e-006 1.39834 -1.81541e-006 0.677129 0.269666 -0.0198562 -12.139 2.85669 -27.8319 -52.1764 -2.72866 -21.818 1.59803 -2.09556 -44.009 -7.71068 -0.0209765 -0.399095 2.84595e-007 -4.981e-007 -6.29244e-007 5.69191e-007 -9.962e-007 -1.25849e-006 1.59028e-015 -6.36111e-015 -3.18055e-015 2.84595e-007 -4.981e-007 -6.29244e-007 -0.0146718 -9.49418e-005 5.09292e-007 -3.18055e-015 0 -4.77083e-015 2.84595e-007 -4.981e-007 -6.29244e-007 -0.0187555 -0.00117764 5.96854e-005 1.59028e-015 -3.18055e-015 3.18055e-015 2.84595e-007 -4.981e-007 -6.29244e-007 -0.0122864 -0.00325266 0.000675705 -4.77083e-015 1.27222e-014 3.18055e-015 2.84595e-007 -4.981e-007 -6.29244e-007 5.69191e-007 -9.962e-007 -1.25849e-006 1.59028e-015 -6.36111e-015 -3.18055e-015 12.0679 2.84077 27.6862 52.1134 -2.76053 21.7888 -1.60627 -2.10285 43.9596 7.82257 -0.093566 0.547132 -1.09578e-006 2.30857e-007 -4.66024e-007 1.59028e-015 -3.18055e-015 -4.77083e-015 2.87045e-007 4.91534e-007 -6.33294e-007 -1.09578e-006 2.30857e-007 -4.66024e-007 0.0149398 -9.37644e-005 -6.81448e-006 2.87036e-007 4.91452e-007 -6.33358e-007 -1.09578e-006 2.30857e-007 -4.66024e-007 0.018977 -0.0011903 -6.75124e-005 -8.10449e-007 7.22315e-007 -1.09942e-006 -1.09578e-006 2.30857e-007 -4.66024e-007 0.0122633 -0.00324592 -0.000677327 2.87017e-007 4.9147e-007 -6.33354e-007 -1.09578e-006 2.30857e-007 -4.66024e-007 1.59028e-015 -3.18055e-015 -4.77083e-015 2.87045e-007 4.91534e-007 -6.33294e-007 -77.1783 -46.3542 -89.4734 -134.493 29.8926 155.676 40.1237 47.0345 -30.345 3.78707e-006 5.7382e-007 1.36254e-006 77.1758 -46.3585 89.47 134.491 29.8915 -155.681 -40.1263 47.0354 30.3443 -2.34727e-006 -3.88981e-006 1.37617e-006 
